<svg xmlns="http://www.w3.org/2000/svg" viewBox="0 0 100 100">
  <rect width="100" height="100" rx="21" fill="#d4380d"/>
  <rect x="18" y="26" width="64" height="60" rx="9" fill="#fff"/>
  <path d="M18 35a9 9 0 0 1 9-9h46a9 9 0 0 1 9 9v6H18z" fill="#a8290a"/>
  <rect x="33.5" y="17" width="6" height="14" rx="3" fill="#fff"/>
  <rect x="60.5" y="17" width="6" height="14" rx="3" fill="#fff"/>
  <g fill="#fdeade">
    <rect x="25" y="49" width="11" height="11" rx="2.5"/>
    <rect x="39.7" y="49" width="11" height="11" rx="2.5"/>
    <rect x="54.3" y="49" width="11" height="11" rx="2.5"/>
    <rect x="69" y="49" width="11" height="11" rx="2.5"/>
    <rect x="25" y="64" width="11" height="11" rx="2.5"/>
  </g>
  <g fill="#f5a623">
    <rect x="39.7" y="64" width="11" height="11" rx="2.5"/>
    <rect x="54.3" y="64" width="11" height="11" rx="2.5"/>
    <rect x="69" y="64" width="11" height="11" rx="2.5"/>
  </g>
</svg>
